<svg width="34" height="34" viewBox="0 0 34 34" fill="none" xmlns="http://www.w3.org/2000/svg">
<path d="M2.42845 18.2144H-0.00012207V32.7858H2.42845C3.15702 32.7858 3.64274 32.3001 3.64274 31.5715V19.4286C3.64274 18.7001 3.15702 18.2144 2.42845 18.2144Z" fill="white"/>
<path d="M32.6644 19.7929C31.8144 19.3072 30.7216 19.1858 29.8716 19.6715L21.8573 24.0429C21.6144 25.5001 20.4002 26.7144 18.8216 26.7144H13.9644C13.6002 26.7144 13.3573 26.4715 13.3573 26.1072C13.3573 25.7429 13.6002 25.5001 13.9644 25.5001H18.8216C19.793 25.5001 20.643 24.6501 20.643 23.6787C20.643 22.7072 19.9144 21.8572 18.8216 21.8572C18.4573 21.8572 12.6287 21.8572 12.6287 21.8572L10.5644 19.7929C10.3216 19.5501 10.0787 19.4287 9.71444 19.4287H4.8573V31.5715H7.04301L10.9287 32.7858C12.5073 33.2715 14.3287 34.0001 16.2716 34.0001C17.9716 34.0001 19.793 33.3929 21.2502 32.3001L32.7859 24.6501C33.5144 24.1644 34.0002 23.1929 34.0002 22.3429C34.0002 21.2501 33.5144 20.4001 32.6644 19.7929Z" fill="white"/>
<path d="M12.1427 19.4286C14.1546 19.4286 15.7856 15.0793 15.7856 9.71429C15.7856 4.34924 14.1546 0 12.1427 0C10.1308 0 8.49988 4.34924 8.49988 9.71429C8.49988 15.0793 10.1308 19.4286 12.1427 19.4286Z" fill="white"/>
<path d="M16.757 6.07157H19.1855C18.9427 4.61443 18.5784 3.40014 18.2141 2.42871H15.7855C16.2712 3.52157 16.5141 4.73586 16.757 6.07157Z" fill="white"/>
<path d="M17.6071 1.21429C17 0.485714 16.3928 0 15.7857 0H14.45C14.6928 0.364286 15.0571 0.728572 15.3 1.21429H17.6071Z" fill="white"/>
<path d="M19.1857 13.3572H16.7571C16.5142 14.6929 16.2714 15.9072 15.9071 17H18.2142C18.5785 16.0286 18.9428 14.8143 19.1857 13.3572Z" fill="white"/>
<path d="M14.4501 19.4286H15.7858C16.3929 19.4286 17.0001 18.9429 17.6072 18.2144H15.3001C15.0572 18.7001 14.8144 19.0644 14.4501 19.4286Z" fill="white"/>
<path d="M16.9997 9.71422C16.9997 10.5642 16.9997 11.2928 16.8783 12.1428H19.3069C19.4283 11.4142 19.4283 10.5642 19.4283 9.71422C19.4283 8.86422 19.4283 8.01422 19.3069 7.28564H16.8783C16.9997 8.13564 16.9997 8.86422 16.9997 9.71422Z" fill="white"/>
<path d="M24.2856 19.4286C26.2975 19.4286 27.9284 15.0793 27.9284 9.71429C27.9284 4.34924 26.2975 0 24.2856 0C22.2737 0 20.6427 4.34924 20.6427 9.71429C20.6427 15.0793 22.2737 19.4286 24.2856 19.4286Z" fill="white"/>
<path d="M28.9 6.07157H31.3286C31.0857 4.61443 30.7214 3.40014 30.3572 2.42871H27.9286C28.4143 3.52157 28.6572 4.73586 28.9 6.07157Z" fill="white"/>
<path d="M29.7499 1.21429C29.1428 0.485714 28.5356 0 27.9285 0H26.5928C26.8356 0.364286 27.1999 0.728572 27.4428 1.21429H29.7499Z" fill="white"/>
<path d="M31.3283 13.3572H28.8997C28.6568 14.6929 28.414 15.9072 28.0497 17H30.3568C30.7211 16.0286 31.0854 14.8143 31.3283 13.3572Z" fill="white"/>
<path d="M26.5927 19.4286H27.9284C28.5355 19.4286 29.1427 18.9429 29.7498 18.2144H27.4427C27.1998 18.7001 26.9569 19.0644 26.5927 19.4286Z" fill="white"/>
<path d="M29.1428 9.71422C29.1428 10.5642 29.1428 11.2928 29.0214 12.1428H31.4499C31.5714 11.4142 31.5714 10.5642 31.5714 9.71422C31.5714 8.86422 31.5714 8.01422 31.4499 7.28564H29.0214C29.1428 8.13564 29.1428 8.86422 29.1428 9.71422Z" fill="white"/>
</svg>
