<svg width="33" height="33" viewBox="0 0 33 33" fill="none" xmlns="http://www.w3.org/2000/svg">
<rect width="33" height="33" rx="16.5" fill="#252154"/>
<g clip-path="url(#clip0_2_8024)">
<path d="M17.3125 12.2642C17.163 12.2642 17.0417 12.1428 17.0417 11.9933V11.0833C17.0417 10.7849 16.7984 10.5417 16.5 10.5417C16.2015 10.5417 15.9583 10.7849 15.9583 11.0833V11.9933C15.9583 12.1428 15.837 12.2642 15.6875 12.2642C15.538 12.2642 15.4167 12.1434 15.4167 11.9933V11.0833C15.4167 10.4859 15.9025 10 16.5 10C17.0974 10 17.5833 10.4859 17.5833 11.0833V11.9933C17.5833 12.1434 17.462 12.2642 17.3125 12.2642Z" fill="white"/>
<path d="M16.5 23C15.4546 23 14.6042 22.1496 14.6042 21.1042C14.6042 20.9547 14.7255 20.8334 14.875 20.8334C15.0245 20.8334 15.1458 20.9547 15.1458 21.1042C15.1458 21.8506 15.7536 22.4584 16.5 22.4584C17.2464 22.4584 17.8542 21.8506 17.8542 21.1042C17.8542 20.9547 17.9755 20.8334 18.125 20.8334C18.2745 20.8334 18.3958 20.9547 18.3958 21.1042C18.3958 22.1496 17.5454 23 16.5 23Z" fill="white"/>
<path d="M21.1042 21.375H11.8958C11.4479 21.375 11.0833 21.0105 11.0833 20.5625C11.0833 20.3247 11.1868 20.0999 11.3677 19.945C12.2214 19.2235 12.7083 18.1738 12.7083 17.0623V15.4167C12.7083 13.3258 14.4092 11.625 16.5 11.625C18.5908 11.625 20.2917 13.3258 20.2917 15.4167V17.0623C20.2917 18.1743 20.7786 19.2235 21.628 19.9412C21.8132 20.0999 21.9167 20.3247 21.9167 20.5625C21.9167 21.0105 21.5527 21.375 21.1042 21.375ZM16.5 12.1667C14.7076 12.1667 13.25 13.6243 13.25 15.4167V17.0623C13.25 18.3341 12.6932 19.5339 11.722 20.355C11.6597 20.4081 11.625 20.4834 11.625 20.5625C11.625 20.712 11.7463 20.8333 11.8958 20.8333H21.1042C21.2537 20.8333 21.375 20.712 21.375 20.5625C21.375 20.4834 21.3403 20.4081 21.2802 20.3567C20.3074 19.5339 19.75 18.3335 19.75 17.0623V15.4167C19.75 13.6243 18.2924 12.1667 16.5 12.1667Z" fill="white"/>
</g>
<defs>
<clipPath id="clip0_2_8024">
<rect width="13" height="13" fill="white" transform="translate(10 10)"/>
</clipPath>
</defs>
</svg>
