<svg width="181" height="181" viewBox="0 0 181 181" fill="none" xmlns="http://www.w3.org/2000/svg">
<path d="M162.338 90.1889C162.338 129.96 130.097 162.201 90.3261 162.201C50.555 162.201 18.3142 129.96 18.3142 90.1889C18.3142 50.4178 50.555 18.177 90.3261 18.177C130.097 18.177 162.338 50.4178 162.338 90.1889ZM39.0575 90.1889C39.0575 118.504 62.0112 141.458 90.3261 141.458C118.641 141.458 141.595 118.504 141.595 90.1889C141.595 61.874 118.641 38.9203 90.3261 38.9203C62.0112 38.9203 39.0575 61.874 39.0575 90.1889Z" fill="#554BC0"/>
<path d="M162.338 90.1889C162.338 74.8613 157.447 59.9335 148.378 47.5774C139.308 35.2212 126.532 26.0813 111.909 21.4874L105.692 41.2771C116.103 44.5477 125.198 51.0548 131.656 59.8518C138.113 68.6487 141.595 79.2765 141.595 90.1889H162.338Z" fill="#BB2ADA"/>
<path d="M111.97 21.8178C97.5586 17.2764 82.0841 17.3832 67.737 22.1228C53.3899 26.8625 40.8972 35.995 32.0274 48.2274C23.1576 60.4597 18.3602 75.1722 18.3144 90.2818C18.2686 105.391 22.9767 120.133 31.7722 132.419L48.6388 120.344C42.3769 111.597 39.025 101.102 39.0576 90.3447C39.0902 79.5874 42.5057 69.1129 48.8205 60.4042C55.1353 51.6954 64.0295 45.1935 74.2438 41.8191C84.4582 38.4447 95.4752 38.3688 105.735 41.6019L111.97 21.8178Z" fill="#A098FF"/>
</svg>
