<svg width="30" height="31" viewBox="0 0 30 31" fill="none" xmlns="http://www.w3.org/2000/svg">
<g clip-path="url(#clip0_2_8356)">
<path fill-rule="evenodd" clip-rule="evenodd" d="M15 0.5C6.72656 0.5 0 7.22656 0 15.5C0 23.7734 6.72656 30.5 15 30.5C23.2734 30.5 30 23.7734 30 15.5C30 7.22656 23.2734 0.5 15 0.5Z" fill="#BB2ADA"/>
<path d="M12.1113 22.3613C10.1953 20.4453 8.29102 18.5117 6.36914 16.5957C6.1582 16.3848 6.1582 16.0332 6.36914 15.8223L8.57812 13.6133C8.78906 13.4023 9.14063 13.4023 9.35156 13.6133L12.5098 16.7715L20.6309 8.64453C20.8477 8.43359 21.1934 8.43359 21.4102 8.64453L23.625 10.8594C23.8418 11.0762 23.8418 11.4219 23.625 11.6328L12.8848 22.3613C12.6738 22.5781 12.3281 22.5781 12.1113 22.3613Z" fill="white"/>
</g>
<defs>
<clipPath id="clip0_2_8356">
<rect width="30" height="30" fill="white" transform="translate(0 0.5)"/>
</clipPath>
</defs>
</svg>
