<svg width="33" height="32" viewBox="0 0 33 32" fill="none" xmlns="http://www.w3.org/2000/svg">
<rect width="33" height="32" rx="16" fill="#252154"/>
<path d="M16.5 22C16.3149 22 16.1365 21.9304 15.9974 21.8041C15.4723 21.3276 14.966 20.8799 14.5192 20.4849L14.517 20.4829C13.2073 19.3249 12.0763 18.3248 11.2894 17.3397C10.4097 16.2384 10 15.1943 10 14.0535C10 12.9453 10.3663 11.9228 11.0313 11.1744C11.7042 10.4171 12.6276 10 13.6317 10C14.3821 10 15.0693 10.2461 15.6742 10.7316C15.9795 10.9766 16.2562 11.2764 16.5 11.6262C16.7439 11.2764 17.0205 10.9766 17.3259 10.7316C17.9308 10.2461 18.618 10 19.3684 10C20.3724 10 21.2959 10.4171 21.9688 11.1744C22.6338 11.9228 23 12.9453 23 14.0535C23 15.1943 22.5904 16.2384 21.7107 17.3396C20.9238 18.3248 19.7929 19.3248 18.4834 20.4827C18.0359 20.8782 17.5288 21.3267 17.0025 21.8043C16.8635 21.9304 16.685 22 16.5 22ZM13.6317 10.7901C12.8429 10.7901 12.1182 11.1167 11.5911 11.7099C11.0561 12.312 10.7614 13.1443 10.7614 14.0535C10.7614 15.0129 11.1051 15.871 11.8756 16.8356C12.6204 17.768 13.7282 18.7475 15.0108 19.8816L15.0132 19.8836C15.4616 20.2801 15.9699 20.7296 16.4989 21.2096C17.0311 20.7287 17.5402 20.2785 17.9895 19.8814C19.272 18.7473 20.3797 17.768 21.1245 16.8356C21.8949 15.871 22.2386 15.0129 22.2386 14.0535C22.2386 13.1443 21.9439 12.312 21.4089 11.7099C20.8819 11.1167 20.1571 10.7901 19.3684 10.7901C18.7906 10.7901 18.2601 10.9807 17.7916 11.3565C17.3742 11.6916 17.0834 12.1151 16.9129 12.4115C16.8252 12.5639 16.6709 12.6549 16.5 12.6549C16.3291 12.6549 16.1748 12.5639 16.0871 12.4115C15.9167 12.1151 15.6259 11.6916 15.2084 11.3565C14.7399 10.9807 14.2094 10.7901 13.6317 10.7901Z" fill="white"/>
</svg>
