<svg width="37" height="42" viewBox="0 0 37 42" fill="none" xmlns="http://www.w3.org/2000/svg">
<g clip-path="url(#clip0_2_8562)">
<path fill-rule="evenodd" clip-rule="evenodd" d="M0 15.75L0 32.55H5.13889C5.67875 32.55 6.21334 32.6587 6.71217 32.8697C7.21088 33.0808 7.66417 33.3901 8.04583 33.7802C8.4276 34.1701 8.73047 34.6332 8.9371 35.1428C9.14361 35.6523 9.25 36.1984 9.25 36.75V42H21.5833L37 26.25V9.45H31.8611C31.3212 9.45 30.7867 9.34138 30.2878 9.13031C29.7891 8.91924 29.3359 8.60985 28.9541 8.21985C28.5724 7.82985 28.2695 7.36682 28.0629 6.85727C27.8564 6.34771 27.75 5.80156 27.75 5.25V0L15.4167 0L0 15.75ZM17.4722 31.5H10.2778V19.95L19.5278 10.5H26.7222V22.05L17.4722 31.5Z" fill="white"/>
</g>
<defs>
<clipPath id="clip0_2_8562">
<rect width="37" height="42" fill="white"/>
</clipPath>
</defs>
</svg>
