<svg width="446" height="1166" viewBox="0 0 446 1166" fill="none" xmlns="http://www.w3.org/2000/svg">
<g filter="url(#filter0_dddd_2_7952)">
<path d="M-128.923 366.654C-87.3069 366.654 -49.6775 369.927 -22.4934 375.2C-8.88708 377.839 2.01402 380.962 9.47141 384.382C13.205 386.095 15.981 387.839 17.7986 389.562C19.6157 391.285 20.3249 392.834 20.3249 394.206C20.3249 395.577 19.6159 397.127 17.7986 398.85C15.981 400.573 13.205 402.318 9.47141 404.03C2.01402 407.45 -8.88708 410.573 -22.4934 413.212C-49.6775 418.485 -87.307 421.758 -128.923 421.758C-170.539 421.758 -208.17 418.485 -235.354 413.212C-248.96 410.573 -259.861 407.45 -267.319 404.03C-271.052 402.318 -273.828 400.573 -275.646 398.85C-277.463 397.127 -278.172 395.577 -278.172 394.206C-278.172 392.834 -277.463 391.285 -275.646 389.562C-273.828 387.839 -271.052 386.095 -267.319 384.382C-259.861 380.962 -248.96 377.839 -235.354 375.2C-208.17 369.927 -170.54 366.654 -128.923 366.654Z" stroke="#554BC0" stroke-opacity="0.3" stroke-width="3.46634"/>
<path d="M-130.225 395.288C-79.9811 395.288 -34.5391 399.144 -1.69897 405.361C14.735 408.471 27.9255 412.157 36.9661 416.202C41.4921 418.228 44.8829 420.302 47.1155 422.367C49.35 424.434 50.2609 426.332 50.261 428.046C50.261 429.761 49.3503 431.659 47.1155 433.726C44.8829 435.791 41.4921 437.864 36.9661 439.89C27.9254 443.936 14.7352 447.622 -1.69897 450.733C-34.5391 456.949 -79.9811 460.805 -130.225 460.805C-180.47 460.805 -225.912 456.949 -258.752 450.733C-275.186 447.622 -288.377 443.936 -297.418 439.89C-301.943 437.864 -305.334 435.791 -307.566 433.726C-309.801 431.659 -310.712 429.761 -310.712 428.046C-310.712 426.332 -309.801 424.435 -307.566 422.367C-305.334 420.302 -301.944 418.228 -297.418 416.202C-288.377 412.156 -275.186 408.471 -258.752 405.361C-225.912 399.144 -180.47 395.288 -130.225 395.288Z" stroke="#554BC0" stroke-opacity="0.3" stroke-width="3.46634"/>
<path d="M-128.924 418.717C-73.2951 418.717 -22.982 423.373 13.38 430.88C31.5751 434.636 46.1856 439.088 56.2052 443.978C61.2186 446.425 64.9919 448.94 67.4894 451.46C69.9818 453.974 71.0861 456.368 71.0861 458.634C71.086 460.899 69.9817 463.293 67.4894 465.807C64.9919 468.327 61.2184 470.841 56.2052 473.288C46.1856 478.178 31.5752 482.631 13.38 486.387C-22.982 493.894 -73.2951 498.551 -128.924 498.551C-184.552 498.551 -234.865 493.894 -271.227 486.387C-289.423 482.631 -304.033 478.178 -314.053 473.288C-319.066 470.841 -322.839 468.327 -325.337 465.807C-327.829 463.293 -328.933 460.899 -328.933 458.634C-328.933 456.368 -327.829 453.974 -325.337 451.46C-322.839 448.94 -319.066 446.425 -314.053 443.978C-304.033 439.088 -289.422 434.636 -271.227 430.88C-234.865 423.373 -184.552 418.717 -128.924 418.717Z" stroke="#554BC0" stroke-opacity="0.3" stroke-width="3.46634"/>
<path d="M-129.574 442.145C-70.5424 442.145 -17.1542 447.746 21.4279 456.776C40.7327 461.294 56.2345 466.649 66.8683 472.533C72.1858 475.476 76.2064 478.507 78.8791 481.564C81.5418 484.609 82.7999 487.598 82.8 490.522C82.8 493.446 81.5418 496.434 78.8791 499.48C76.2064 502.537 72.1858 505.568 66.8683 508.51C56.2345 514.394 40.7327 519.75 21.4279 524.268C-17.1542 533.298 -70.5424 538.899 -129.574 538.899C-188.606 538.899 -241.995 533.298 -280.577 524.268C-299.882 519.75 -315.384 514.394 -326.017 508.51C-331.335 505.568 -335.355 502.537 -338.028 499.48C-340.691 496.434 -341.949 493.446 -341.949 490.522C-341.949 487.598 -340.691 484.609 -338.028 481.564C-335.355 478.507 -331.335 475.476 -326.017 472.533C-315.384 466.649 -299.882 461.294 -280.577 456.776C-241.995 447.746 -188.606 442.145 -129.574 442.145Z" stroke="#554BC0" stroke-opacity="0.3" stroke-width="3.46634"/>
<path d="M-127.623 464.271C-65.5444 464.271 -9.40154 470.672 31.1703 480.991C51.4694 486.154 67.774 492.274 78.9613 499.001C90.2559 505.793 95.8156 512.876 95.8158 519.807C95.8158 526.737 90.2561 533.821 78.9613 540.613C67.774 547.34 51.4694 553.46 31.1703 558.623C-9.40154 568.942 -65.5444 575.343 -127.623 575.343C-189.701 575.343 -245.844 568.942 -286.416 558.623C-306.715 553.46 -323.018 547.34 -334.206 540.613C-345.501 533.821 -351.06 526.737 -351.06 519.807C-351.06 512.876 -345.5 505.793 -334.206 499.001C-323.018 492.274 -306.715 486.154 -286.416 480.991C-245.844 470.672 -189.701 464.272 -127.623 464.271Z" stroke="#554BC0" stroke-opacity="0.3" stroke-width="3.46634"/>
<path d="M-130.225 494.208C-67.4317 494.208 -10.6431 500.899 30.3947 511.686C50.9265 517.083 67.4177 523.48 78.7346 530.513C90.1443 537.604 95.8156 545.028 95.8156 552.346C95.8156 559.664 90.1443 567.088 78.7346 574.179C67.4177 581.212 50.9265 587.609 30.3947 593.006C-10.6431 603.793 -67.4317 610.485 -130.225 610.485C-193.019 610.485 -249.808 603.793 -290.845 593.006C-311.377 587.609 -327.868 581.212 -339.185 574.179C-350.595 567.088 -356.266 559.664 -356.266 552.346C-356.266 545.028 -350.595 537.604 -339.185 530.513C-327.868 523.48 -311.377 517.083 -290.845 511.686C-249.808 500.899 -193.019 494.208 -130.225 494.208Z" stroke="#554BC0" stroke-opacity="0.3" stroke-width="3.46634"/>
<path d="M-130.225 518.937C-67.4412 518.937 -10.6651 526.21 30.3596 537.931C50.8836 543.795 67.3665 550.746 78.6789 558.387C90.0518 566.07 95.8155 574.176 95.8156 582.282C95.8156 590.388 90.0519 598.495 78.6789 606.177C67.3665 613.819 50.8835 620.77 30.3596 626.634C-10.6651 638.355 -67.4412 645.628 -130.225 645.628C-193.01 645.628 -249.786 638.355 -290.81 626.634C-311.334 620.77 -327.817 613.819 -339.13 606.177C-350.503 598.495 -356.266 590.388 -356.266 582.282C-356.266 574.176 -350.502 566.07 -339.13 558.387C-327.817 550.746 -311.334 543.795 -290.81 537.931C-249.786 526.21 -193.01 518.937 -130.225 518.937Z" stroke="#554BC0" stroke-opacity="0.3" stroke-width="3.46634"/>
<path d="M-130.225 542.365C-67.4522 542.365 -10.69 550.292 30.3205 563.064C50.836 569.453 67.3127 577.025 78.6223 585.352C89.9666 593.705 95.8156 602.584 95.8156 611.568C95.8156 620.551 89.9666 629.431 78.6223 637.783C67.3127 646.111 50.836 653.682 30.3205 660.072C-10.69 672.843 -67.4522 680.77 -130.225 680.77C-192.999 680.77 -249.761 672.843 -290.771 660.072C-311.286 653.682 -327.762 646.111 -339.072 637.783C-350.417 629.431 -356.266 620.551 -356.266 611.568C-356.266 602.584 -350.417 593.705 -339.072 585.352C-327.762 577.025 -311.286 569.453 -290.771 563.064C-249.761 550.292 -192.999 542.365 -130.225 542.365Z" stroke="#554BC0" stroke-opacity="0.3" stroke-width="3.46634"/>
<path d="M-130.226 573.603C-69.9744 573.603 -15.4969 581.528 23.858 594.294C43.5451 600.681 59.3518 608.249 70.1998 616.569C81.0729 624.908 86.7047 633.79 86.7047 642.805C86.7046 651.82 81.0729 660.702 70.1998 669.042C59.3518 677.362 43.5451 684.929 23.858 691.316C-15.4969 704.083 -69.9744 712.007 -130.226 712.007C-190.477 712.007 -244.954 704.083 -284.309 691.316C-303.996 684.929 -319.803 677.362 -330.651 669.042C-341.524 660.702 -347.156 651.82 -347.156 642.805C-347.156 633.79 -341.524 624.908 -330.651 616.569C-319.803 608.249 -303.996 600.681 -284.309 594.294C-244.954 581.528 -190.477 573.603 -130.226 573.603Z" stroke="#554BC0" stroke-opacity="0.3" stroke-width="3.46634"/>
<path d="M-131.527 600.936C-74.1546 600.936 -22.286 608.714 15.1794 621.242C33.9211 627.508 48.963 634.932 59.2839 643.091C69.6238 651.266 74.9909 659.978 74.991 668.836C74.991 677.695 69.6239 686.407 59.2839 694.582C48.963 702.741 33.9211 710.164 15.1794 716.431C-22.286 728.959 -74.1546 736.737 -131.527 736.737C-188.899 736.737 -240.767 728.959 -278.233 716.431C-296.974 710.164 -312.016 702.741 -322.337 694.582C-332.677 686.407 -338.044 677.695 -338.044 668.836C-338.044 659.978 -332.677 651.266 -322.337 643.091C-312.016 634.932 -296.974 627.508 -278.233 621.242C-240.767 608.714 -188.899 600.936 -131.527 600.936Z" stroke="#554BC0" stroke-opacity="0.3" stroke-width="3.46634"/>
<path d="M-130.225 628.269C-76.4543 628.269 -27.8481 635.9 7.25421 648.186C24.8133 654.332 38.9002 661.609 48.5628 669.605C58.2363 677.61 63.2766 686.156 63.2767 694.868C63.2767 703.58 58.2362 712.126 48.5628 720.13C38.9001 728.126 24.8134 735.405 7.25421 741.55C-27.8481 753.836 -76.4543 761.467 -130.225 761.467C-183.996 761.467 -232.602 753.836 -267.705 741.55C-285.264 735.405 -299.351 728.126 -309.013 720.13C-318.687 712.126 -323.727 703.58 -323.727 694.868C-323.727 686.156 -318.687 677.61 -309.013 669.605C-299.351 661.609 -285.264 654.332 -267.705 648.186C-232.602 635.9 -183.996 628.269 -130.225 628.269Z" stroke="#554BC0" stroke-opacity="0.3" stroke-width="3.46634"/>
<path d="M-132.829 663.411C-85.1759 663.411 -42.1104 670.53 -11.0211 681.984C4.53017 687.713 16.9935 694.495 25.5375 701.937C34.0855 709.382 38.5471 717.335 38.5473 725.454C38.5473 733.574 34.0856 741.527 25.5375 748.973C16.9935 756.415 4.53016 763.197 -11.0211 768.926C-42.1104 780.38 -85.1759 787.498 -132.829 787.498C-180.481 787.498 -223.546 780.38 -254.635 768.926C-270.187 763.197 -282.651 756.415 -291.195 748.973C-299.743 741.527 -304.204 733.574 -304.204 725.454C-304.203 717.335 -299.743 709.382 -291.195 701.937C-282.651 694.495 -270.187 687.713 -254.635 681.984C-223.546 670.53 -180.481 663.411 -132.829 663.411Z" stroke="#554BC0" stroke-opacity="0.3" stroke-width="3.46634"/>
<path d="M-135.432 695.951C-95.3321 695.951 -59.106 702.121 -32.968 712.04C-19.893 717.001 -9.43078 722.867 -2.26883 729.292C4.89363 735.718 8.61097 742.562 8.61105 749.534C8.61105 756.506 4.89387 763.35 -2.26883 769.776C-9.43078 776.201 -19.893 782.066 -32.968 787.028C-59.106 796.946 -95.332 803.118 -135.432 803.118C-175.532 803.118 -211.758 796.946 -237.896 787.028C-250.971 782.066 -261.432 776.201 -268.594 769.776C-275.757 763.35 -279.474 756.506 -279.474 749.534C-279.474 742.562 -275.757 735.718 -268.594 729.292C-261.432 722.867 -250.971 717.001 -237.896 712.04C-211.758 702.121 -175.532 695.951 -135.432 695.951Z" stroke="#554BC0" stroke-opacity="0.3" stroke-width="3.46634"/>
</g>
<defs>
<filter id="filter0_dddd_2_7952" x="-705.826" y="0.17392" width="1151.2" height="1165.52" filterUnits="userSpaceOnUse" color-interpolation-filters="sRGB">
<feFlood flood-opacity="0" result="BackgroundImageFix"/>
<feColorMatrix in="SourceAlpha" type="matrix" values="0 0 0 0 0 0 0 0 0 0 0 0 0 0 0 0 0 0 127 0" result="hardAlpha"/>
<feOffset/>
<feGaussianBlur stdDeviation="4.33292"/>
<feColorMatrix type="matrix" values="0 0 0 0 0.192157 0 0 0 0 0.243529 0 0 0 0 0.705882 0 0 0 0.5 0"/>
<feBlend mode="normal" in2="BackgroundImageFix" result="effect1_dropShadow_2_7952"/>
<feColorMatrix in="SourceAlpha" type="matrix" values="0 0 0 0 0 0 0 0 0 0 0 0 0 0 0 0 0 0 127 0" result="hardAlpha"/>
<feOffset/>
<feGaussianBlur stdDeviation="17.3317"/>
<feColorMatrix type="matrix" values="0 0 0 0 0.192157 0 0 0 0 0.380523 0 0 0 0 0.705882 0 0 0 0.5 0"/>
<feBlend mode="normal" in2="effect1_dropShadow_2_7952" result="effect2_dropShadow_2_7952"/>
<feColorMatrix in="SourceAlpha" type="matrix" values="0 0 0 0 0 0 0 0 0 0 0 0 0 0 0 0 0 0 127 0" result="hardAlpha"/>
<feOffset dy="6.93267"/>
<feGaussianBlur stdDeviation="86.6584"/>
<feColorMatrix type="matrix" values="0 0 0 0 0.192157 0 0 0 0 0.269216 0 0 0 0 0.705882 0 0 0 0.5 0"/>
<feBlend mode="normal" in2="effect2_dropShadow_2_7952" result="effect3_dropShadow_2_7952"/>
<feColorMatrix in="SourceAlpha" type="matrix" values="0 0 0 0 0 0 0 0 0 0 0 0 0 0 0 0 0 0 127 0" result="hardAlpha"/>
<feOffset/>
<feGaussianBlur stdDeviation="173.913"/>
<feColorMatrix type="matrix" values="0 0 0 0 0.414771 0 0 0 0 0.192157 0 0 0 0 0.705882 0 0 0 0.5 0"/>
<feBlend mode="normal" in2="effect3_dropShadow_2_7952" result="effect4_dropShadow_2_7952"/>
<feBlend mode="normal" in="SourceGraphic" in2="effect4_dropShadow_2_7952" result="shape"/>
</filter>
</defs>
</svg>
