<svg width="50" height="50" viewBox="0 0 50 50" fill="none" xmlns="http://www.w3.org/2000/svg">
<g filter="url(#filter0_d_2_7918)">
<path d="M26.06 38.0122V42.0001C29.8594 41.7682 33.4206 40.2932 36.2711 37.7705L33.4465 34.946C31.4208 36.6691 28.8643 37.7857 26.06 38.0122Z" fill="white"/>
</g>
<g filter="url(#filter1_d_2_7918)">
<path d="M38.0121 26.0601C37.7857 28.8643 36.6691 31.4208 34.946 33.4466L37.7705 36.271C40.2932 33.4205 41.7683 29.8594 42 26.0601H38.0121Z" fill="white"/>
</g>
<g filter="url(#filter2_d_2_7918)">
<path d="M23.9396 11.9879V8C20.1402 8.23182 16.5791 9.70691 13.7286 12.2296L16.553 15.054C18.5789 13.331 21.1353 12.2143 23.9396 11.9879Z" fill="white"/>
</g>
<g filter="url(#filter3_d_2_7918)">
<path d="M24.9998 14.0649C18.9702 14.0649 14.0648 18.9704 14.0648 25C14.0648 31.0295 18.9702 35.935 24.9998 35.935C31.0293 35.935 35.9347 31.0295 35.9347 25C35.9347 18.9704 31.0293 14.0649 24.9998 14.0649ZM24.7928 23.6617H25.2068C26.8514 23.6617 28.1895 24.9997 28.1895 26.6444C28.1895 27.9926 27.2901 29.1341 26.0599 29.5021V31.6121H23.9396V29.5021C22.7095 29.1341 21.8101 27.9926 21.8101 26.6444H23.9304C23.9304 27.1198 24.3173 27.5067 24.7928 27.5067H25.2068C25.6822 27.5067 26.0691 27.1198 26.0691 26.6444C26.0691 26.1689 25.6822 25.782 25.2068 25.782H24.7928C23.1481 25.782 21.8101 24.444 21.8101 22.7993C21.8101 21.4511 22.7095 20.3095 23.9396 19.9416V17.8316H26.0599V19.9416C27.2901 20.3095 28.1895 21.4511 28.1895 22.7993H26.0691C26.0691 22.3238 25.6822 21.937 25.2068 21.937H24.7928C24.3173 21.937 23.9304 22.3238 23.9304 22.7993C23.9304 23.2748 24.3172 23.6617 24.7928 23.6617Z" fill="white"/>
</g>
<g filter="url(#filter4_d_2_7918)">
<path d="M33.4465 15.054L36.271 12.2296C33.4206 9.70691 29.8594 8.23182 26.06 8V11.9879C28.8643 12.2143 31.4208 13.331 33.4465 15.054Z" fill="white"/>
</g>
<g filter="url(#filter5_d_2_7918)">
<path d="M15.0539 16.5532L12.2294 13.7288C9.70676 16.5792 8.23167 20.1404 7.99985 23.9397H11.9878C12.2143 21.1355 13.3308 18.579 15.0539 16.5532Z" fill="white"/>
</g>
<g filter="url(#filter6_d_2_7918)">
<path d="M11.9878 26.0601H7.99985C8.23167 29.8594 9.70676 33.4205 12.2293 36.271L15.0539 33.4466C13.3308 31.4208 12.2143 28.8643 11.9878 26.0601Z" fill="white"/>
</g>
<g filter="url(#filter7_d_2_7918)">
<path d="M16.5531 34.946L13.7286 37.7705C16.5791 40.2932 20.1402 41.7682 23.9396 42.0001V38.0122C21.1353 37.7857 18.5789 36.6691 16.5531 34.946Z" fill="white"/>
</g>
<g filter="url(#filter8_d_2_7918)">
<path d="M38.0119 23.9397H41.9998C41.768 20.1404 40.2929 16.5792 37.7703 13.7288L34.9457 16.5532C36.6689 18.579 37.7854 21.1355 38.0119 23.9397Z" fill="white"/>
</g>
<defs>
<filter id="filter0_d_2_7918" x="18.86" y="27.746" width="24.6111" height="21.454" filterUnits="userSpaceOnUse" color-interpolation-filters="sRGB">
<feFlood flood-opacity="0" result="BackgroundImageFix"/>
<feColorMatrix in="SourceAlpha" type="matrix" values="0 0 0 0 0 0 0 0 0 0 0 0 0 0 0 0 0 0 127 0" result="hardAlpha"/>
<feOffset/>
<feGaussianBlur stdDeviation="3.6"/>
<feComposite in2="hardAlpha" operator="out"/>
<feColorMatrix type="matrix" values="0 0 0 0 0.599038 0 0 0 0 0.543743 0 0 0 0 0.543743 0 0 0 0.25 0"/>
<feBlend mode="normal" in2="BackgroundImageFix" result="effect1_dropShadow_2_7918"/>
<feBlend mode="normal" in="SourceGraphic" in2="effect1_dropShadow_2_7918" result="shape"/>
</filter>
<filter id="filter1_d_2_7918" x="27.746" y="18.8601" width="21.454" height="24.6109" filterUnits="userSpaceOnUse" color-interpolation-filters="sRGB">
<feFlood flood-opacity="0" result="BackgroundImageFix"/>
<feColorMatrix in="SourceAlpha" type="matrix" values="0 0 0 0 0 0 0 0 0 0 0 0 0 0 0 0 0 0 127 0" result="hardAlpha"/>
<feOffset/>
<feGaussianBlur stdDeviation="3.6"/>
<feComposite in2="hardAlpha" operator="out"/>
<feColorMatrix type="matrix" values="0 0 0 0 0.599038 0 0 0 0 0.543743 0 0 0 0 0.543743 0 0 0 0.25 0"/>
<feBlend mode="normal" in2="BackgroundImageFix" result="effect1_dropShadow_2_7918"/>
<feBlend mode="normal" in="SourceGraphic" in2="effect1_dropShadow_2_7918" result="shape"/>
</filter>
<filter id="filter2_d_2_7918" x="6.52858" y="0.8" width="24.6111" height="21.454" filterUnits="userSpaceOnUse" color-interpolation-filters="sRGB">
<feFlood flood-opacity="0" result="BackgroundImageFix"/>
<feColorMatrix in="SourceAlpha" type="matrix" values="0 0 0 0 0 0 0 0 0 0 0 0 0 0 0 0 0 0 127 0" result="hardAlpha"/>
<feOffset/>
<feGaussianBlur stdDeviation="3.6"/>
<feComposite in2="hardAlpha" operator="out"/>
<feColorMatrix type="matrix" values="0 0 0 0 0.599038 0 0 0 0 0.543743 0 0 0 0 0.543743 0 0 0 0.25 0"/>
<feBlend mode="normal" in2="BackgroundImageFix" result="effect1_dropShadow_2_7918"/>
<feBlend mode="normal" in="SourceGraphic" in2="effect1_dropShadow_2_7918" result="shape"/>
</filter>
<filter id="filter3_d_2_7918" x="6.86476" y="6.86494" width="36.27" height="36.2701" filterUnits="userSpaceOnUse" color-interpolation-filters="sRGB">
<feFlood flood-opacity="0" result="BackgroundImageFix"/>
<feColorMatrix in="SourceAlpha" type="matrix" values="0 0 0 0 0 0 0 0 0 0 0 0 0 0 0 0 0 0 127 0" result="hardAlpha"/>
<feOffset/>
<feGaussianBlur stdDeviation="3.6"/>
<feComposite in2="hardAlpha" operator="out"/>
<feColorMatrix type="matrix" values="0 0 0 0 0.599038 0 0 0 0 0.543743 0 0 0 0 0.543743 0 0 0 0.25 0"/>
<feBlend mode="normal" in2="BackgroundImageFix" result="effect1_dropShadow_2_7918"/>
<feBlend mode="normal" in="SourceGraphic" in2="effect1_dropShadow_2_7918" result="shape"/>
</filter>
<filter id="filter4_d_2_7918" x="18.86" y="0.8" width="24.611" height="21.454" filterUnits="userSpaceOnUse" color-interpolation-filters="sRGB">
<feFlood flood-opacity="0" result="BackgroundImageFix"/>
<feColorMatrix in="SourceAlpha" type="matrix" values="0 0 0 0 0 0 0 0 0 0 0 0 0 0 0 0 0 0 127 0" result="hardAlpha"/>
<feOffset/>
<feGaussianBlur stdDeviation="3.6"/>
<feComposite in2="hardAlpha" operator="out"/>
<feColorMatrix type="matrix" values="0 0 0 0 0.599038 0 0 0 0 0.543743 0 0 0 0 0.543743 0 0 0 0.25 0"/>
<feBlend mode="normal" in2="BackgroundImageFix" result="effect1_dropShadow_2_7918"/>
<feBlend mode="normal" in="SourceGraphic" in2="effect1_dropShadow_2_7918" result="shape"/>
</filter>
<filter id="filter5_d_2_7918" x="0.799848" y="6.52876" width="21.454" height="24.6109" filterUnits="userSpaceOnUse" color-interpolation-filters="sRGB">
<feFlood flood-opacity="0" result="BackgroundImageFix"/>
<feColorMatrix in="SourceAlpha" type="matrix" values="0 0 0 0 0 0 0 0 0 0 0 0 0 0 0 0 0 0 127 0" result="hardAlpha"/>
<feOffset/>
<feGaussianBlur stdDeviation="3.6"/>
<feComposite in2="hardAlpha" operator="out"/>
<feColorMatrix type="matrix" values="0 0 0 0 0.599038 0 0 0 0 0.543743 0 0 0 0 0.543743 0 0 0 0.25 0"/>
<feBlend mode="normal" in2="BackgroundImageFix" result="effect1_dropShadow_2_7918"/>
<feBlend mode="normal" in="SourceGraphic" in2="effect1_dropShadow_2_7918" result="shape"/>
</filter>
<filter id="filter6_d_2_7918" x="0.799848" y="18.8601" width="21.454" height="24.6109" filterUnits="userSpaceOnUse" color-interpolation-filters="sRGB">
<feFlood flood-opacity="0" result="BackgroundImageFix"/>
<feColorMatrix in="SourceAlpha" type="matrix" values="0 0 0 0 0 0 0 0 0 0 0 0 0 0 0 0 0 0 127 0" result="hardAlpha"/>
<feOffset/>
<feGaussianBlur stdDeviation="3.6"/>
<feComposite in2="hardAlpha" operator="out"/>
<feColorMatrix type="matrix" values="0 0 0 0 0.599038 0 0 0 0 0.543743 0 0 0 0 0.543743 0 0 0 0.25 0"/>
<feBlend mode="normal" in2="BackgroundImageFix" result="effect1_dropShadow_2_7918"/>
<feBlend mode="normal" in="SourceGraphic" in2="effect1_dropShadow_2_7918" result="shape"/>
</filter>
<filter id="filter7_d_2_7918" x="6.52858" y="27.746" width="24.6111" height="21.454" filterUnits="userSpaceOnUse" color-interpolation-filters="sRGB">
<feFlood flood-opacity="0" result="BackgroundImageFix"/>
<feColorMatrix in="SourceAlpha" type="matrix" values="0 0 0 0 0 0 0 0 0 0 0 0 0 0 0 0 0 0 127 0" result="hardAlpha"/>
<feOffset/>
<feGaussianBlur stdDeviation="3.6"/>
<feComposite in2="hardAlpha" operator="out"/>
<feColorMatrix type="matrix" values="0 0 0 0 0.599038 0 0 0 0 0.543743 0 0 0 0 0.543743 0 0 0 0.25 0"/>
<feBlend mode="normal" in2="BackgroundImageFix" result="effect1_dropShadow_2_7918"/>
<feBlend mode="normal" in="SourceGraphic" in2="effect1_dropShadow_2_7918" result="shape"/>
</filter>
<filter id="filter8_d_2_7918" x="27.7457" y="6.52876" width="21.4541" height="24.6109" filterUnits="userSpaceOnUse" color-interpolation-filters="sRGB">
<feFlood flood-opacity="0" result="BackgroundImageFix"/>
<feColorMatrix in="SourceAlpha" type="matrix" values="0 0 0 0 0 0 0 0 0 0 0 0 0 0 0 0 0 0 127 0" result="hardAlpha"/>
<feOffset/>
<feGaussianBlur stdDeviation="3.6"/>
<feComposite in2="hardAlpha" operator="out"/>
<feColorMatrix type="matrix" values="0 0 0 0 0.599038 0 0 0 0 0.543743 0 0 0 0 0.543743 0 0 0 0.25 0"/>
<feBlend mode="normal" in2="BackgroundImageFix" result="effect1_dropShadow_2_7918"/>
<feBlend mode="normal" in="SourceGraphic" in2="effect1_dropShadow_2_7918" result="shape"/>
</filter>
</defs>
</svg>
