<svg width="22" height="22" viewBox="0 0 22 22" fill="none" xmlns="http://www.w3.org/2000/svg">
<g clip-path="url(#clip0_2_8413)">
<g clip-path="url(#clip1_2_8413)">
<path d="M12.7057 22.9779C18.7362 22.9779 23.6248 18.0893 23.6248 12.0588C23.6248 6.02831 18.7362 1.13965 12.7057 1.13965C6.67525 1.13965 1.78659 6.02831 1.78659 12.0588C1.78659 18.0893 6.67525 22.9779 12.7057 22.9779Z" fill="#F3BA2F"/>
<path d="M10.0552 10.9696L12.7058 8.31903L15.3578 10.971L16.9001 9.42867L12.7058 5.23438L8.51286 9.42732L10.0552 10.9696ZM5.88135 12.0588L7.42367 10.5165L8.966 12.0588L7.42367 13.6011L5.88135 12.0588ZM10.0552 13.148L12.7058 15.7986L15.3578 13.1466L16.9001 14.6883L12.7058 18.8833L8.51286 14.6903L8.5108 14.6883L10.0552 13.148ZM16.4456 12.0588L17.9879 10.5165L19.5302 12.0588L17.9879 13.6011L16.4456 12.0588ZM14.2714 12.0575V12.0588L12.7058 13.6244L11.1423 12.0616L11.1396 12.0588L11.1423 12.0568L11.416 11.7824L11.549 11.6494L12.7058 10.4933L14.2714 12.0575Z" fill="white"/>
</g>
</g>
<rect x="1.29039" y="0.643357" width="20.1838" height="20.1838" rx="10.0919" stroke="#F14668" stroke-opacity="0.2" stroke-width="0.992647"/>
<defs>
<clipPath id="clip0_2_8413">
<rect x="0.794067" y="0.147034" width="21.1765" height="21.1765" rx="10.5882" fill="white"/>
</clipPath>
<clipPath id="clip1_2_8413">
<rect width="21.8382" height="21.8382" fill="white" transform="translate(1.78659 1.13965)"/>
</clipPath>
</defs>
</svg>
