<svg width="35" height="34" viewBox="0 0 35 34" fill="none" xmlns="http://www.w3.org/2000/svg">
<path d="M28.3585 7.08305C31.8471 12.2633 33.5915 18.0777 32.9572 24.791C32.9572 24.791 32.9572 24.8437 32.9044 24.8437C30.5785 26.5881 27.9356 27.9096 25.134 28.7554C25.0811 28.8083 25.0811 28.7554 25.0284 28.7554C24.4469 27.9096 23.9183 27.0639 23.4425 26.1653C23.4425 26.1124 23.4425 26.1124 23.4425 26.0596L23.4954 26.0067C24.3412 25.6895 25.134 25.3195 25.9269 24.8437C25.9269 24.8437 25.9798 24.8437 25.9798 24.791C25.9798 24.7381 25.9798 24.7381 25.9269 24.6852C25.7683 24.5795 25.6098 24.4738 25.4512 24.3152C25.3983 24.3152 25.3983 24.3152 25.3455 24.3152C20.3238 26.641 14.8265 26.641 9.75197 24.3152C9.6991 24.3152 9.64625 24.3152 9.64625 24.3152C9.48767 24.4738 9.32909 24.5795 9.17052 24.6852C9.11766 24.7381 9.11766 24.7381 9.11766 24.791C9.11766 24.8437 9.11766 24.8437 9.17052 24.8437C9.91054 25.3195 10.7563 25.6895 11.602 26.0067C11.602 26.0067 11.602 26.0596 11.6549 26.0596C11.6549 26.1124 11.6549 26.1124 11.6549 26.1653C11.1792 27.0639 10.6506 27.9096 10.0691 28.7554C10.0163 28.7554 9.96341 28.8083 9.96341 28.7554C7.16185 27.9096 4.5189 26.5881 2.19308 24.8437C2.14022 24.8437 2.14022 24.791 2.14022 24.791C1.61163 18.9764 2.72167 13.109 6.73898 7.08305C6.73898 7.08305 6.73898 7.08305 6.79184 7.08305C8.8005 6.13158 10.9149 5.49727 13.0821 5.12725C13.135 5.07439 13.1879 5.12725 13.1879 5.12725C13.505 5.65584 13.7693 6.2373 13.9807 6.76589C16.3594 6.39588 18.738 6.39588 21.1167 6.76589C21.3281 6.2373 21.5925 5.65584 21.9097 5.12725C21.9097 5.12725 21.9625 5.07439 22.0153 5.12725C24.1826 5.49727 26.297 6.13158 28.3056 7.08305C28.3585 7.08305 28.3585 7.08305 28.3585 7.08305ZM12.3949 21.2494C13.9278 21.2494 15.1965 19.8221 15.1965 18.1306C15.1965 16.3862 13.9807 15.012 12.3949 15.012C10.862 15.012 9.5934 16.3862 9.5934 18.1306C9.5934 19.8221 10.862 21.2494 12.3949 21.2494ZM22.7025 21.2494C24.2883 21.2494 25.504 19.8221 25.504 18.1306C25.5569 16.3862 24.2883 15.012 22.7025 15.012C21.1696 15.012 19.9539 16.3862 19.9539 18.1306C19.9539 19.8221 21.1696 21.2494 22.7025 21.2494Z" fill="#D4D4D4"/>
</svg>
