<svg width="35" height="34" viewBox="0 0 35 34" fill="none" xmlns="http://www.w3.org/2000/svg">
<path d="M17.7449 3.80566C24.9337 3.80566 30.854 9.72591 30.854 16.9148C30.854 24.1566 24.9337 30.0239 17.7449 30.0239C10.5031 30.0239 4.63574 24.1566 4.63574 16.9148C4.63574 9.72591 10.5031 3.80566 17.7449 3.80566ZM23.7709 12.7389C23.8237 12.5803 23.8237 12.4217 23.7709 12.2103C23.7709 12.1046 23.6651 11.9461 23.6122 11.8932C23.4537 11.7345 23.1894 11.7345 23.0837 11.7345C22.6079 11.7345 21.8151 11.9988 18.1677 13.5318C16.8991 14.0604 14.3619 15.1175 10.556 16.809C9.92168 17.0733 9.60452 17.2848 9.55167 17.5491C9.4988 17.972 10.186 18.1305 10.9789 18.3949C11.666 18.6063 12.5646 18.8706 13.0404 18.8706C13.4632 18.8706 13.939 18.7121 14.4676 18.342C18.0092 15.9105 19.8592 14.6946 19.965 14.6946C20.0707 14.6946 20.1763 14.6419 20.2292 14.6946C20.335 14.8004 20.335 14.9062 20.2821 14.959C20.2292 15.2233 16.8991 18.2892 16.6877 18.5005C15.9476 19.2406 15.1018 19.7164 16.4234 20.5621C17.5334 21.3021 18.1677 21.7779 19.3306 22.5179C20.0707 22.9936 20.6521 23.575 21.3922 23.5222C21.7622 23.4694 22.1322 23.1521 22.2907 22.1478C22.7665 19.8749 23.6122 14.8004 23.7709 12.7389Z" fill="#D4D4D4"/>
</svg>
