<svg width="35" height="34" viewBox="0 0 35 34" fill="none" xmlns="http://www.w3.org/2000/svg">
<path d="M27.384 5.07446C28.2826 5.07446 29.0755 5.86735 29.0755 6.81883V27.064C29.0755 28.0155 28.2826 28.7555 27.384 28.7555H7.03314C6.13453 28.7555 5.3945 28.0155 5.3945 27.064V6.81883C5.3945 5.86735 6.13453 5.07446 7.03314 5.07446H27.384ZM12.5305 25.3725V14.1134H9.0418V25.3725H12.5305ZM10.7862 12.5277C11.8962 12.5277 12.7948 11.629 12.7948 10.519C12.7948 9.40893 11.8962 8.45746 10.7862 8.45746C9.62325 8.45746 8.72464 9.40893 8.72464 10.519C8.72464 11.629 9.62325 12.5277 10.7862 12.5277ZM25.6925 25.3725V19.1879C25.6925 16.175 25.0053 13.7963 21.4638 13.7963C19.7723 13.7963 18.6094 14.7477 18.1336 15.6463H18.0808V14.1134H14.7506V25.3725H18.2393V19.8222C18.2393 18.3421 18.5036 16.915 20.3537 16.915C22.151 16.915 22.151 18.6065 22.151 19.8751V25.3725H25.6925Z" fill="#D4D4D4"/>
</svg>
