<svg width="35" height="34" viewBox="0 0 35 34" fill="none" xmlns="http://www.w3.org/2000/svg">
<g clip-path="url(#clip0_2_8516)">
<path d="M30.5139 16.9148C30.5139 23.4694 25.7037 28.9138 19.4134 29.8654V20.7207H22.4793L23.0607 16.9148H19.4134V14.4833C19.4134 13.426 19.942 12.4217 21.5806 12.4217H23.2193V9.19732C23.2193 9.19732 21.7393 8.93303 20.2591 8.93303C17.299 8.93303 15.3433 10.7831 15.3433 14.0604V16.9148H12.0132V20.7207H15.3433V29.8654C9.053 28.9138 4.29565 23.4694 4.29565 16.9148C4.29565 9.67305 10.163 3.80566 17.4048 3.80566C24.6465 3.80566 30.5139 9.67305 30.5139 16.9148Z" fill="#D4D4D4"/>
</g>
<defs>
<clipPath id="clip0_2_8516">
<rect width="33.83" height="33.83" fill="white" transform="translate(0.48999)"/>
</clipPath>
</defs>
</svg>
