<svg width="56" height="56" viewBox="0 0 56 56" fill="none" xmlns="http://www.w3.org/2000/svg">
<g filter="url(#filter0_d_2_7933)">
<path fill-rule="evenodd" clip-rule="evenodd" d="M32.2302 15.3982C26.8993 22.135 17.018 24.3195 17.018 24.3195C16.2601 24.4859 15.488 24.0937 15.2939 23.444C15.0998 22.7944 15.5574 22.1326 16.3153 21.9662C16.3153 21.9662 25.7248 19.9226 30.3248 13.4493L27.5382 13.4286C26.7562 13.4225 26.1272 12.8737 26.1342 12.2034C26.1413 11.5331 26.7817 10.994 27.5637 11.0001L33.627 11.0462C34.4005 11.0511 35.0252 11.5865 35.0309 12.2495L35.0833 17.3265C35.0904 17.9968 34.4614 18.5456 33.6794 18.5517C32.8974 18.5578 32.2571 18.0186 32.25 17.3483L32.2302 15.3982ZM20.1871 45H13.8333C12.2679 45 11 43.9132 11 42.5714V31.6429C11 30.3011 12.2679 29.2143 13.8333 29.2143H20.1871V45ZM23.0204 28.0425C23.0204 26.6777 24.311 25.5715 25.9033 25.5715H29.9791C31.5714 25.5715 32.862 26.6777 32.862 28.0425V45H23.0204V28.0425ZM35.6953 23.1854C35.6953 21.8205 36.9859 20.7143 38.5768 20.7143H42.1667C43.7321 20.7143 45 21.8011 45 23.1429V42.5714C45 43.9132 43.7321 45 42.1667 45H35.6953V23.1854Z" fill="white"/>
</g>
<defs>
<filter id="filter0_d_2_7933" x="0.4" y="0.4" width="55.2" height="55.2" filterUnits="userSpaceOnUse" color-interpolation-filters="sRGB">
<feFlood flood-opacity="0" result="BackgroundImageFix"/>
<feColorMatrix in="SourceAlpha" type="matrix" values="0 0 0 0 0 0 0 0 0 0 0 0 0 0 0 0 0 0 127 0" result="hardAlpha"/>
<feOffset/>
<feGaussianBlur stdDeviation="5.3"/>
<feComposite in2="hardAlpha" operator="out"/>
<feColorMatrix type="matrix" values="0 0 0 0 0.696154 0 0 0 0 0.685444 0 0 0 0 0.685444 0 0 0 0.25 0"/>
<feBlend mode="normal" in2="BackgroundImageFix" result="effect1_dropShadow_2_7933"/>
<feBlend mode="normal" in="SourceGraphic" in2="effect1_dropShadow_2_7933" result="shape"/>
</filter>
</defs>
</svg>
