<svg width="74" height="74" viewBox="0 0 74 74" fill="none" xmlns="http://www.w3.org/2000/svg">
<g filter="url(#filter0_d_2_7930)">
<path d="M37.0044 20C36.8491 19.9997 36.6954 20.0362 36.5528 20.1072L20.6866 27.9538C20.1113 28.2387 19.8452 29.0076 20.0923 29.6711C20.2069 29.979 20.4197 30.2243 20.6866 30.3565L36.5528 38.2005C36.8383 38.3419 37.1617 38.3419 37.4472 38.2005L53.3134 30.3565C53.8887 30.0716 54.1548 29.3027 53.9077 28.6392C53.7931 28.3314 53.5803 28.086 53.3134 27.9538L37.4472 20.1072C37.3074 20.0375 37.1568 20.0011 37.0044 20ZM23.3125 34.5007L20.6866 35.7978C20.1113 36.0827 19.8452 36.8516 20.0923 37.5151C20.2069 37.823 20.4197 38.0683 20.6866 38.2005L36.5528 46.0471C36.8383 46.1885 37.1617 46.1885 37.4472 46.0471L53.3134 38.2005C53.8887 37.9156 54.1548 37.1467 53.9077 36.4832C53.7931 36.1754 53.5803 35.93 53.3134 35.7978L50.6875 34.5007L38.3439 40.6058C37.4866 41.0307 36.5156 41.0307 35.6583 40.6058L23.3125 34.5007ZM23.3103 42.3447L20.6866 43.6444C19.7711 44.0975 19.7711 45.594 20.6866 46.0471L36.5528 53.8936C36.8386 54.0354 37.1614 54.0354 37.4472 53.8936L53.3134 46.0471C54.2289 45.594 54.2289 44.0975 53.3134 43.6444L50.6897 42.3447L38.3439 48.4498C37.4866 48.8747 36.5156 48.8747 35.6583 48.4498L23.3103 42.3447Z" fill="white"/>
</g>
<defs>
<filter id="filter0_d_2_7930" x="0.4" y="0.4" width="73.2" height="73.2" filterUnits="userSpaceOnUse" color-interpolation-filters="sRGB">
<feFlood flood-opacity="0" result="BackgroundImageFix"/>
<feColorMatrix in="SourceAlpha" type="matrix" values="0 0 0 0 0 0 0 0 0 0 0 0 0 0 0 0 0 0 127 0" result="hardAlpha"/>
<feOffset/>
<feGaussianBlur stdDeviation="9.8"/>
<feComposite in2="hardAlpha" operator="out"/>
<feColorMatrix type="matrix" values="0 0 0 0 0.346154 0 0 0 0 0.346154 0 0 0 0 0.346154 0 0 0 0.25 0"/>
<feBlend mode="normal" in2="BackgroundImageFix" result="effect1_dropShadow_2_7930"/>
<feBlend mode="normal" in="SourceGraphic" in2="effect1_dropShadow_2_7930" result="shape"/>
</filter>
</defs>
</svg>
